<svg xmlns="http://www.w3.org/2000/svg" viewBox="0 0 303.5 201.64"><defs><style>.cls-1{fill:#fff;}.cls-2{font-size:12px;font-family:MyriadPro-Regular, Myriad Pro;}.cls-3{font-size:20px;font-family:Neucha;}.cls-4{letter-spacing:-0.1em;}</style></defs><g id="Calque_2" data-name="Calque 2"><g id="Calque_1-2" data-name="Calque 1"><path d="M221,165.57a226.41,226.41,0,0,1-36.05,7.54,231.2,231.2,0,0,1-38.37,2c-8.38-.33-16.76-.83-25.09-1.69A211.81,211.81,0,0,1,74.7,163.07c-15-5.14-29.28-11.88-42.16-21.3-9.17-6.7-17.29-14.46-23.33-24.16C-1.5,100.4-3.1,82.5,5.64,64c4.85-10.26,12.22-18.57,20.83-25.82C38.26,28.26,51.61,21,65.89,15.38,92.63,4.84,120.51.36,149.14,0a254.32,254.32,0,0,1,41.43,2.87A218.94,218.94,0,0,1,232.76,13.5c15.12,5.54,29.37,12.72,42,22.8,9.53,7.61,17.62,16.45,23,27.51a52.91,52.91,0,0,1,5.61,26.29,56.06,56.06,0,0,1-9.22,27.73A87.66,87.66,0,0,1,270.57,142a11.87,11.87,0,0,0-4.53,6.06c-8.75,24.13-24.75,41.21-49.17,49.89-4.08,1.45-8.31,2.46-12.46,3.67l-.14-.32c8.46-10.76,14.91-22.52,18.2-36.14C221.83,165.35,221.4,165.45,221,165.57Zm5.31-19.25c2.83,8.16,2.81,16.45,1.06,24.8a53.52,53.52,0,0,1-5.79,15.4,1.19,1.19,0,0,0-.15.89c1.84-1.16,3.7-2.28,5.52-3.47,9.05-5.95,17.49-12.61,24.62-20.82,4.2-4.84,7.21-10.43,10.31-16,1.52-2.72,2.94-5.49,4.34-8.27a3.94,3.94,0,0,0,.24-2c2.47-1.73,2.6-4.87,4.14-7.39l-.52,4.1c1.09-1,2-1.75,2.83-2.56,7.23-6.88,13.25-14.63,16.88-24,5.9-15.25,4.29-29.91-3.85-43.93-5.28-9.08-12.54-16.4-20.84-22.73-12-9.15-25.37-15.65-39.55-20.59A208.82,208.82,0,0,0,177.43,9.35a240.87,240.87,0,0,0-46.89-.13c-20.46,1.95-40.35,6.36-59.36,14.32C58.62,28.8,46.87,35.43,36.56,44.42,28.08,51.8,21,60.31,16.93,70.91c-6.13,15.79-4.19,30.86,4.56,45.15,6.11,10,14.51,17.79,24.05,24.42,13.51,9.39,28.41,15.79,44.12,20.44a213.25,213.25,0,0,0,38.13,7.49,237.16,237.16,0,0,0,29.43,1.33c22.2-.41,44-3.55,65.14-10.46a1.59,1.59,0,0,0,1.32-1.63,52,52,0,0,0-1.62-18.87A21,21,0,0,1,226.3,146.32Z"/><path class="cls-1" d="M222.06,138.78a21,21,0,0,1,4.24,7.54c2.83,8.16,2.81,16.45,1.06,24.8a53.52,53.52,0,0,1-5.79,15.4,1.19,1.19,0,0,0-.15.89c1.84-1.16,3.7-2.28,5.52-3.47,9.05-5.95,17.49-12.61,24.62-20.82,4.2-4.84,7.21-10.43,10.31-16,1.52-2.72,2.94-5.49,4.34-8.27a3.94,3.94,0,0,0,.24-2c2.47-1.73,2.6-4.87,4.14-7.39l-.52,4.1c1.09-1,2-1.75,2.83-2.56,7.23-6.88,13.25-14.63,16.88-24,5.9-15.25,4.29-29.91-3.85-43.93-5.28-9.08-12.54-16.4-20.84-22.73-12-9.15-25.37-15.65-39.55-20.59A208.82,208.82,0,0,0,177.43,9.35a240.87,240.87,0,0,0-46.89-.13c-20.46,1.95-40.35,6.36-59.36,14.32C58.62,28.8,46.87,35.43,36.56,44.42,28.08,51.8,21,60.31,16.93,70.91c-6.13,15.79-4.19,30.86,4.56,45.15,6.11,10,14.51,17.79,24.05,24.42,13.51,9.39,28.41,15.79,44.12,20.44a213.25,213.25,0,0,0,38.13,7.49,237.16,237.16,0,0,0,29.43,1.33c22.2-.41,44-3.55,65.14-10.46a1.59,1.59,0,0,0,1.32-1.63A52,52,0,0,0,222.06,138.78Z"/><text class="cls-2" transform="translate(75.2 51.13)"> </text><text class="cls-3" transform="translate(74.03 81.18)">Bonjou<tspan class="cls-4" x="47.85" y="0">r</tspan><tspan x="53.13" y="0">, je m’appelle </tspan><tspan x="10.06" y="24">Claire Bannwarth</tspan></text></g></g></svg>